<svg xmlns="http://www.w3.org/2000/svg" viewBox="0 0 500 120" fill="none">
  <!-- Lotus Icon -->
  <g transform="translate(10, 10) scale(1)">
    <circle cx="50" cy="50" r="45" stroke="currentColor" stroke-width="4" fill="none"/>
    <path d="M50 20 C65 20, 70 40, 50 55 C30 40, 35 20, 50 20 Z" stroke="currentColor" stroke-width="3" fill="none"/>
    <path d="M50 55 C70 45, 80 55, 65 65 C55 60, 50 55, 50 55 Z" stroke="currentColor" stroke-width="3" fill="none"/>
    <path d="M50 55 C30 45, 20 55, 35 65 C45 60, 50 55, 50 55 Z" stroke="currentColor" stroke-width="3" fill="none"/>
    <path d="M50 55 C60 70, 55 80, 50 85 C45 80, 40 70, 50 55 Z" stroke="currentColor" stroke-width="3" fill="none"/>
    <circle cx="40" cy="70" r="2" fill="currentColor"/>
    <circle cx="60" cy="70" r="2" fill="currentColor"/>
  </g>
  <!-- Text -->
  <text x="120" y="80" font-family="Arial, sans-serif" font-size="72" font-weight="500" fill="currentColor" letter-spacing="-1">Ethara.AI</text>
</svg>
